# xmcd CD database file
#
# Track frame offsets:
#	150
#	12710
#	23293
#	35138
#	47834
#	63274
#	71720
#	84144
#	102844
#	119506
#	134288
#	154827
#
# Disc length: 2253 seconds
#
# Revision: 4
# Processed by: cddbd v1.4PL0 Copyright (c) Steve Scherf et al.
# Submitted via: CDex 1.40Release
#
DISCID=9b08cb0c
DTITLE=The Oak Ridge Boys - Collection (Gospel Favorites) V1
DYEAR=1998
DGENRE=Gospel
TTITLE0=King Jesus
TTITLE1=Jesus, Is The Man (For The Hour)
TTITLE2=The Old Rugged Cross Made The Diference
TTITLE3=I Don't Know Why Jesus Loved Me
TTITLE4=After Calvary
TTITLE5=Thanks
TTITLE6=These Hands Of Mine
TTITLE7=Through It All
TTITLE8=I Should Have Been Crucified
TTITLE9=Let Me Live
TTITLE10=It Won't Be Long
TTITLE11=Oh Happy Day
EXTD=YEAR: 1998 ID3G: 38
EXTT0=
EXTT1=
EXTT2=
EXTT3=
EXTT4=
EXTT5=
EXTT6=
EXTT7=
EXTT8=
EXTT9=
EXTT10=
EXTT11=
PLAYORDER=
